 <svg xmlns="http://www.w3.org/2000/svg" viewBox="0 0 81.03 28.85"><title>ulab-logo</title><path d="M50.5,11.33a2.63,2.63,0,0,0-.11.81V22.59a5.85,5.85,0,0,1-1,3.41,4.84,4.84,0,0,1-2.54,1.91,10.39,10.39,0,0,1-3.28.49,7.42,7.42,0,0,1-4-.94,5.14,5.14,0,0,1-1.83-2,5.87,5.87,0,0,1-.65-2.76V12.15A2.84,2.84,0,0,0,37,11.33h3a2.78,2.78,0,0,0-.11.8V22.78a4.42,4.42,0,0,0,.7,2.54A4.23,4.23,0,0,0,44.39,27a4.79,4.79,0,0,0,3.5-1.21,4.59,4.59,0,0,0,1.24-3.44V12.15A3.17,3.17,0,0,0,49,11.34H50.5Z" transform="translate(-9.71 -11.02)" style="fill:#0072bc"/><path d="M62.42,28.17H53.87A2.66,2.66,0,0,0,54,27.38V12.15a2.81,2.81,0,0,0-.11-0.81h3a2.81,2.81,0,0,0-.11.81V26.81h4.77a3.22,3.22,0,0,0,.85-0.11v1.47Z" transform="translate(-9.71 -11.02)" style="fill:#0072bc"/><path d="M66.82,22.89l-1.63,4.58a1.92,1.92,0,0,0-.1.7H63.51a3.3,3.3,0,0,0,.34-0.7l5.51-15.52a1.91,1.91,0,0,0,.11-0.62h2.45a2.07,2.07,0,0,0,.11.56l5.68,15.58a3.94,3.94,0,0,0,.41.7H74.84a2.23,2.23,0,0,0-.12-0.7L73.1,22.89H66.82Zm0.43-1.23h5.38L69.91,14Z" transform="translate(-9.71 -11.02)" style="fill:#0072bc"/><path d="M80,12.13a2.38,2.38,0,0,0-.11-0.8h5.69a5.76,5.76,0,0,1,3.38.91,3.73,3.73,0,0,1,1.48,3.24,3.43,3.43,0,0,1-1.79,3.25,8.56,8.56,0,0,1-1.6.62,5.64,5.64,0,0,1,1.85.64,3.81,3.81,0,0,1,1.88,3.57,4.24,4.24,0,0,1-1.86,3.72,5,5,0,0,1-3,.88H79.87A2.63,2.63,0,0,0,80,27.34V12.13h0Zm2.81,6.76H84a4.31,4.31,0,0,0,2.46-.58,3.15,3.15,0,0,0,1.17-2.8q0-2.92-3-2.92H82.79v6.3Zm0,8h2q3.1,0,3.1-3.23a3.43,3.43,0,0,0-1.11-2.81,3,3,0,0,0-1.12-.59A6.36,6.36,0,0,0,84,20.07H82.79v6.8Z" transform="translate(-9.71 -11.02)" style="fill:#0072bc"/><path d="M39.47,32.15a0.48,0.48,0,0,0,0,.14v1.84a1,1,0,0,1-.17.6,0.86,0.86,0,0,1-.45.34,1.86,1.86,0,0,1-.58.09A1.31,1.31,0,0,1,37.54,35a0.92,0.92,0,0,1-.32-0.35,1.05,1.05,0,0,1-.11-0.49V32.29a0.44,0.44,0,0,0,0-.14h0.53a0.54,0.54,0,0,0,0,.14v1.88a0.78,0.78,0,0,0,.12.45,0.75,0.75,0,0,0,.67.31A0.84,0.84,0,0,0,39,34.71a0.81,0.81,0,0,0,.22-0.61V32.29a0.51,0.51,0,0,0,0-.14h0.26Z" transform="translate(-9.71 -11.02)" style="fill:#0072bc"/><path d="M40.31,32.69V35a0.53,0.53,0,0,0,0,.15H40.06a0.51,0.51,0,0,0,0-.15V32.29a0.48,0.48,0,0,0,0-.14h0.47a0.31,0.31,0,0,0,.05.1l1.62,2.27V32.29a0.52,0.52,0,0,0,0-.14h0.26a0.5,0.5,0,0,0,0,.14V35a0.35,0.35,0,0,0,0,.13H42A0.48,0.48,0,0,0,42,35Z" transform="translate(-9.71 -11.02)" style="fill:#0072bc"/><path d="M43.12,32.29a0.53,0.53,0,0,0,0-.14h0.53a0.54,0.54,0,0,0,0,.14V35a0.57,0.57,0,0,0,0,.15H43.1a0.55,0.55,0,0,0,0-.15V32.29h0Z" transform="translate(-9.71 -11.02)" style="fill:#0072bc"/><path d="M43.94,32.29l-0.06-.15h0.56v0a0.31,0.31,0,0,0,0,.1l0.79,2.35,0.81-2.35a0.34,0.34,0,0,0,0-.12h0.27l-0.06.13L45.36,35a0.57,0.57,0,0,0,0,.12H44.88a0.71,0.71,0,0,0,0-.12l-0.91-2.7h0Z" transform="translate(-9.71 -11.02)" style="fill:#0072bc"/><path d="M46.59,32.29a0.44,0.44,0,0,0,0-.14h1.54v0.24l-0.14,0H47.08V33.5h0.86l0.16,0v0.24h-1v1.17h0.86l0.16,0v0.26H46.57a0.59,0.59,0,0,0,0-.14V32.29h0Z" transform="translate(-9.71 -11.02)" style="fill:#0072bc"/><path d="M49.15,33.74V35a0.52,0.52,0,0,0,0,.15H48.64a0.45,0.45,0,0,0,0-.15V32.29a0.51,0.51,0,0,0,0-.14h0.9a1.11,1.11,0,0,1,.54.13,0.77,0.77,0,0,1,.28.27,0.76,0.76,0,0,1,.11.4,0.67,0.67,0,0,1-.47.68l-0.33.09,1,1.28a0.56,0.56,0,0,0,.12.12H50.12A0.54,0.54,0,0,0,50.06,35Zm0-.17h0.23a0.6,0.6,0,0,0,.35-0.1A0.57,0.57,0,0,0,50,33a0.56,0.56,0,0,0-.61-0.61H49.15v1.21Z" transform="translate(-9.71 -11.02)" style="fill:#0072bc"/><path d="M50.85,34.93l0.1-.35,0.2,0.16a0.88,0.88,0,0,0,.51.16,0.58,0.58,0,0,0,.43-0.16,0.49,0.49,0,0,0,.14-0.35A0.47,0.47,0,0,0,52,34a3.1,3.1,0,0,0-.45-0.24,1.63,1.63,0,0,1-.52-0.35,0.7,0.7,0,0,1-.18-0.48A0.76,0.76,0,0,1,51,32.48a1,1,0,0,1,.85-0.38,1.71,1.71,0,0,1,.69.16l-0.09.32a1.13,1.13,0,0,0-.63-0.24,0.48,0.48,0,0,0-.37.14,0.41,0.41,0,0,0-.12.3,0.39,0.39,0,0,0,.12.3,2,2,0,0,0,.49.29,1.57,1.57,0,0,1,.56.37,0.81,0.81,0,0,1,.18.53,0.9,0.9,0,0,1-.13.47,1,1,0,0,1-.89.44,1.53,1.53,0,0,1-.41-0.05A2,2,0,0,1,50.85,34.93Z" transform="translate(-9.71 -11.02)" style="fill:#0072bc"/><path d="M53.17,32.29a0.5,0.5,0,0,0,0-.14h0.53a0.44,0.44,0,0,0,0,.14V35a0.46,0.46,0,0,0,0,.15H53.15a0.51,0.51,0,0,0,0-.15V32.29h0Z" transform="translate(-9.71 -11.02)" style="fill:#0072bc"/><path d="M53.95,32.15H56.1v0.27l-0.19,0H55.28V35a0.48,0.48,0,0,0,0,.15H54.76a0.43,0.43,0,0,0,0-.15V32.4H54.14l-0.19,0V32.15h0Z" transform="translate(-9.71 -11.02)" style="fill:#0072bc"/><path d="M57,33.81l-0.77-1.55a0.78,0.78,0,0,0-.07-0.12h0.58a0.45,0.45,0,0,0,0,.13l0.6,1.23L58,32.27a0.56,0.56,0,0,0,0-.12h0.28l-0.07.11-0.78,1.55V35a0.49,0.49,0,0,0,0,.15H57A0.47,0.47,0,0,0,57,35V33.81Z" transform="translate(-9.71 -11.02)" style="fill:#0072bc"/><path d="M59.84,32.79a1.32,1.32,0,0,1,1.29-.69,1.47,1.47,0,0,1,1,.36,1.54,1.54,0,0,1,.42,1.17,1.55,1.55,0,0,1-.4,1.15,1.45,1.45,0,0,1-1.07.38,1.39,1.39,0,0,1-1.08-.4,1.66,1.66,0,0,1-.37-1.15,1.75,1.75,0,0,1,.18-0.81h0Zm2.22,0.85q0-1.29-.93-1.31a0.8,0.8,0,0,0-.73.37,1.7,1.7,0,0,0-.21.9q0,1.32.94,1.32a0.8,0.8,0,0,0,.71-0.37,1.27,1.27,0,0,0,.17-0.4,2.29,2.29,0,0,0,.05-0.53h0Z" transform="translate(-9.71 -11.02)" style="fill:#0072bc"/><path d="M63.1,32.29a0.48,0.48,0,0,0,0-.14H64.6v0.24l-0.16,0H63.6V33.5h0.71l0.15,0v0.24l-0.15,0H63.6V35a0.46,0.46,0,0,0,0,.15H63.08a0.48,0.48,0,0,0,0-.15V32.29h0Z" transform="translate(-9.71 -11.02)" style="fill:#0072bc"/><path d="M67.73,35.12H66.22a0.55,0.55,0,0,0,0-.14V32.29a0.59,0.59,0,0,0,0-.14h0.54a0.5,0.5,0,0,0,0,.14v2.59h0.84l0.15,0v0.26h0Z" transform="translate(-9.71 -11.02)" style="fill:#0072bc"/><path d="M68.12,32.29a0.5,0.5,0,0,0,0-.14h0.54a0.47,0.47,0,0,0,0,.14V35a0.49,0.49,0,0,0,0,.15H68.1a0.51,0.51,0,0,0,0-.15V32.29h0Z" transform="translate(-9.71 -11.02)" style="fill:#0072bc"/><path d="M69.31,32.29a0.49,0.49,0,0,0,0-.14h1a1,1,0,0,1,.6.16,0.66,0.66,0,0,1,.26.57,0.6,0.6,0,0,1-.32.58,1.58,1.58,0,0,1-.28.11,1,1,0,0,1,.33.11,0.67,0.67,0,0,1,.33.63,0.75,0.75,0,0,1-.33.66,0.9,0.9,0,0,1-.52.15H69.29a0.55,0.55,0,0,0,0-.15V32.29h0Zm0.5,1.19H70a0.76,0.76,0,0,0,.43-0.1,0.56,0.56,0,0,0,.21-0.49,0.47,0.47,0,0,0-.54-0.51H69.8v1.11h0Zm0,1.41h0.35a0.5,0.5,0,0,0,.55-0.57,0.61,0.61,0,0,0-.2-0.5,0.52,0.52,0,0,0-.2-0.1,1.15,1.15,0,0,0-.29,0H69.8v1.2h0Z" transform="translate(-9.71 -11.02)" style="fill:#0072bc"/><path d="M71.74,32.29a0.38,0.38,0,0,0,0-.14h1.54v0.24l-0.14,0H72.24V33.5H73.1l0.16,0v0.24h-1v1.17H73.1l0.17,0v0.26H71.72a0.54,0.54,0,0,0,0-.14V32.29h0Z" transform="translate(-9.71 -11.02)" style="fill:#0072bc"/><path d="M74.31,33.74V35a0.56,0.56,0,0,0,0,.15H73.79a0.43,0.43,0,0,0,0-.15V32.29a0.48,0.48,0,0,0,0-.14h0.9a1.11,1.11,0,0,1,.54.13,0.75,0.75,0,0,1,.29.27,0.77,0.77,0,0,1,.11.4,0.67,0.67,0,0,1-.47.68l-0.33.09,1,1.28a0.52,0.52,0,0,0,.12.12H75.27A0.54,0.54,0,0,0,75.21,35Zm0-.17h0.23a0.6,0.6,0,0,0,.35-0.1,0.57,0.57,0,0,0,.24-0.5,0.56,0.56,0,0,0-.61-0.61H74.31v1.21Z" transform="translate(-9.71 -11.02)" style="fill:#0072bc"/><path d="M76.46,34.19L76.17,35a0.35,0.35,0,0,0,0,.13H75.87A0.6,0.6,0,0,0,75.93,35l1-2.74a0.35,0.35,0,0,0,0-.11h0.43a0.33,0.33,0,0,0,0,.1l1,2.75a0.72,0.72,0,0,0,.07.13H77.87a0.41,0.41,0,0,0,0-.12l-0.28-.81H76.46ZM76.53,34h0.95L77,32.63Z" transform="translate(-9.71 -11.02)" style="fill:#0072bc"/><path d="M80.27,35.12H78.76a0.44,0.44,0,0,0,0-.14V32.29a0.47,0.47,0,0,0,0-.14H79.3a0.5,0.5,0,0,0,0,.14v2.59h0.84l0.15,0v0.26h0Z" transform="translate(-9.71 -11.02)" style="fill:#0072bc"/><path d="M82.1,34.19L81.81,35a0.31,0.31,0,0,0,0,.13H81.51A0.71,0.71,0,0,0,81.57,35l1-2.74a0.32,0.32,0,0,0,0-.11H83a0.36,0.36,0,0,0,0,.1L84,35l0.07,0.13H83.51a0.41,0.41,0,0,0,0-.12l-0.29-.81H82.1ZM82.17,34h0.95l-0.48-1.34Z" transform="translate(-9.71 -11.02)" style="fill:#0072bc"/><path d="M84.93,33.74V35a0.52,0.52,0,0,0,0,.15H84.41a0.4,0.4,0,0,0,0-.15V32.29a0.44,0.44,0,0,0,0-.14h0.9a1.12,1.12,0,0,1,.54.13,0.75,0.75,0,0,1,.39.67,0.67,0.67,0,0,1-.47.68l-0.33.09,1,1.28a0.6,0.6,0,0,0,.12.12H85.89A0.48,0.48,0,0,0,85.83,35Zm0-.17h0.23a0.6,0.6,0,0,0,.35-0.1,0.57,0.57,0,0,0,.24-0.5,0.62,0.62,0,0,0-.2-0.48,0.61,0.61,0,0,0-.41-0.13H84.93v1.21Z" transform="translate(-9.71 -11.02)" style="fill:#0072bc"/><path d="M86.41,32.15h2.15v0.27l-0.18,0H87.74V35a0.48,0.48,0,0,0,0,.15H87.23a0.53,0.53,0,0,0,0-.15V32.4H86.6l-0.19,0V32.15Z" transform="translate(-9.71 -11.02)" style="fill:#0072bc"/><path d="M88.66,34.93l0.1-.35L89,34.74a0.88,0.88,0,0,0,.51.16,0.57,0.57,0,0,0,.43-0.16A0.49,0.49,0,0,0,90,34.38a0.47,0.47,0,0,0-.2-0.39,3.29,3.29,0,0,0-.45-0.24,1.63,1.63,0,0,1-.52-0.35,0.7,0.7,0,0,1-.18-0.48,0.76,0.76,0,0,1,.13-0.44,1,1,0,0,1,.85-0.38,1.7,1.7,0,0,1,.69.16l-0.09.32a1.13,1.13,0,0,0-.63-0.24,0.49,0.49,0,0,0-.37.14,0.41,0.41,0,0,0-.12.3,0.39,0.39,0,0,0,.12.3,2,2,0,0,0,.5.29,1.61,1.61,0,0,1,.56.37,0.82,0.82,0,0,1,.18.53,0.88,0.88,0,0,1-.13.47,1,1,0,0,1-.89.44,1.52,1.52,0,0,1-.41-0.05A1.9,1.9,0,0,1,88.66,34.93Z" transform="translate(-9.71 -11.02)" style="fill:#0072bc"/><path d="M37.13,36.74a0.43,0.43,0,0,0,0-.14h1a1,1,0,0,1,.6.16,0.66,0.66,0,0,1,.26.57,0.6,0.6,0,0,1-.32.58,1.42,1.42,0,0,1-.28.11,1,1,0,0,1,.33.11,0.67,0.67,0,0,1,.33.63,0.75,0.75,0,0,1-.33.66,0.88,0.88,0,0,1-.52.15H37.11a0.47,0.47,0,0,0,0-.15V36.74h0Zm0.5,1.19h0.21a0.77,0.77,0,0,0,.43-0.1,0.56,0.56,0,0,0,.21-0.49,0.47,0.47,0,0,0-.54-0.52H37.63v1.11Zm0,1.41H38a0.49,0.49,0,0,0,.55-0.57,0.6,0.6,0,0,0-.2-0.5,0.54,0.54,0,0,0-.2-0.1,1.12,1.12,0,0,0-.29,0H37.63v1.2h0Z" transform="translate(-9.71 -11.02)" style="fill:#0072bc"/><path d="M39.78,38.64l-0.29.81a0.32,0.32,0,0,0,0,.12H39.19a0.57,0.57,0,0,0,.06-0.12l1-2.74a0.29,0.29,0,0,0,0-.11h0.44a0.29,0.29,0,0,0,0,.1l1,2.75a0.73,0.73,0,0,0,.07.12H41.19a0.44,0.44,0,0,0,0-.12l-0.28-.81H39.78Zm0.08-.22H40.8l-0.48-1.34Z" transform="translate(-9.71 -11.02)" style="fill:#0072bc"/><path d="M42.31,37.15v2.28a0.42,0.42,0,0,0,0,.14H42.07a0.47,0.47,0,0,0,0-.14V36.75a0.44,0.44,0,0,0,0-.14h0.47a0.33,0.33,0,0,0,.05.1L44.22,39V36.75a0.48,0.48,0,0,0,0-.14h0.27a0.49,0.49,0,0,0,0,.14v2.7a0.38,0.38,0,0,0,0,.13H44L44,39.46Z" transform="translate(-9.71 -11.02)" style="fill:#0072bc"/><path d="M46.46,36.56a2.43,2.43,0,0,1,.83.16v0.37a1.43,1.43,0,0,0-.81-0.28,0.91,0.91,0,0,0-.7.3,1,1,0,0,0-.23.41,2.11,2.11,0,0,0-.08.59,1.43,1.43,0,0,0,.3,1,0.85,0.85,0,0,0,.67.28,0.92,0.92,0,0,0,.46-0.12V38.09a0.5,0.5,0,0,0,0-.14H47.4a0.52,0.52,0,0,0,0,.14v1.14a0.64,0.64,0,0,0,0,.18,5.51,5.51,0,0,1-.58.17,2.21,2.21,0,0,1-.44,0,1.54,1.54,0,0,1-.76-0.17,1.25,1.25,0,0,1-.53-0.58,1.82,1.82,0,0,1-.15-0.77,1.5,1.5,0,0,1,.48-1.2,1.52,1.52,0,0,1,1-.34h0Z" transform="translate(-9.71 -11.02)" style="fill:#0072bc"/><path d="M49.47,39.57H48a0.47,0.47,0,0,0,0-.14V36.75a0.51,0.51,0,0,0,0-.14H48.5a0.51,0.51,0,0,0,0,.14v2.59h0.84l0.15,0v0.26h0Z" transform="translate(-9.71 -11.02)" style="fill:#0072bc"/><path d="M50.25,38.64L50,39.45a0.37,0.37,0,0,0,0,.12H49.66a0.46,0.46,0,0,0,.06-0.12l1-2.74a0.34,0.34,0,0,0,0-.11h0.43a0.34,0.34,0,0,0,0,.1l1,2.75,0.07,0.12H51.67a0.4,0.4,0,0,0,0-.12l-0.29-.81H50.25Zm0.08-.22h1L50.8,37.08Z" transform="translate(-9.71 -11.02)" style="fill:#0072bc"/><path d="M52.57,36.74a0.4,0.4,0,0,0,0-.14h0.92a1.7,1.7,0,0,1,.86.21,1.19,1.19,0,0,1,.49.52,1.65,1.65,0,0,1,.17.74,1.54,1.54,0,0,1-.33,1,1.3,1.3,0,0,1-1.06.49h-1a0.44,0.44,0,0,0,0-.14V36.74h0Zm0.5,2.58h0.4a0.87,0.87,0,0,0,.64-0.24,1,1,0,0,0,.24-0.38,1.88,1.88,0,0,0,.11-0.64A1.18,1.18,0,0,0,54,37a1,1,0,0,0-.62-0.19H53.07v2.47Z" transform="translate(-9.71 -11.02)" style="fill:#0072bc"/><path d="M55.5,36.75a0.44,0.44,0,0,0,0-.14H57v0.24l-0.14,0H56V38h0.86l0.16,0v0.24H56v1.17h0.86l0.17,0v0.26H55.48a0.49,0.49,0,0,0,0-.14V36.75h0Z" transform="translate(-9.71 -11.02)" style="fill:#0072bc"/><path d="M57.36,39.39l0.1-.35,0.2,0.16a0.87,0.87,0,0,0,.51.16,0.57,0.57,0,0,0,.43-0.16,0.49,0.49,0,0,0,.14-0.35,0.47,0.47,0,0,0-.2-0.39,3.15,3.15,0,0,0-.45-0.24,1.64,1.64,0,0,1-.52-0.35,0.69,0.69,0,0,1-.18-0.48,0.76,0.76,0,0,1,.13-0.44,1,1,0,0,1,.85-0.38,1.68,1.68,0,0,1,.69.16L59,37a1.13,1.13,0,0,0-.63-0.24,0.49,0.49,0,0,0-.37.14,0.41,0.41,0,0,0-.12.3,0.39,0.39,0,0,0,.12.3,1.94,1.94,0,0,0,.49.28,1.59,1.59,0,0,1,.56.37,0.81,0.81,0,0,1,.19.53,0.87,0.87,0,0,1-.13.47,1,1,0,0,1-.89.44,1.48,1.48,0,0,1-.41-0.05A1.93,1.93,0,0,1,57.36,39.39Z" transform="translate(-9.71 -11.02)" style="fill:#0072bc"/><path d="M60.15,38.15v1.29a0.48,0.48,0,0,0,0,.14H59.64a0.48,0.48,0,0,0,0-.14V36.74a0.52,0.52,0,0,0,0-.14h0.53a0.54,0.54,0,0,0,0,.14v1.18h1.31V36.75a0.59,0.59,0,0,0,0-.14H62a0.48,0.48,0,0,0,0,.14v2.69a0.47,0.47,0,0,0,0,.14H61.44a0.51,0.51,0,0,0,0-.14V38.15H60.15Z" transform="translate(-9.71 -11.02)" style="fill:#0072bc"/><path d="M35.07,27.78c0-.26,0-1.33,0-1.6V11.12H9.82V26.18c0,0.26,0,1.34,0,1.61l0.06,0.65a12.63,12.63,0,0,0,25.13,0Z" transform="translate(-9.71 -11.02)" style="fill:#f3c108;stroke:#fff;stroke-width:0.19059999287128448px"/><path d="M31.48,25.57V13.16H13.38V26.1h0c0,0.09,0,.18,0,0.27a9.07,9.07,0,1,0,18.14,0A7.56,7.56,0,0,0,31.48,25.57Z" transform="translate(-9.71 -11.02)" style="fill:#33a3dc"/><path d="M29.23,25.95a6.79,6.79,0,1,1-6.79-6.82A6.81,6.81,0,0,1,29.23,25.95Z" transform="translate(-9.71 -11.02)" style="fill:#f3c108"/><path d="M20,17.47s-0.36,8.07-2.2,10.05a7.6,7.6,0,0,1,4.23,6.26h0.26V17.47H20Z" transform="translate(-9.71 -11.02)" style="fill:#fff;stroke:#000;stroke-width:0.007899999618530273px"/><path d="M24.87,17.47s0.37,8.07,2.2,10.05a7.61,7.61,0,0,0-4.23,6.26H22.58V17.47h2.3Z" transform="translate(-9.71 -11.02)" style="fill:#fff;stroke:#000;stroke-width:0.007899999618530273px"/><path d="M18.89,14.75H25.8l-0.2,1.56A5.18,5.18,0,0,0,25,17.45H19.78a9,9,0,0,0-.65-1.18Z" transform="translate(-9.71 -11.02)" style="fill:#fff;stroke:#000;stroke-width:0.007899999618530273px"/><line x1="9.41" y1="5.25" x2="15.88" y2="5.25" style="fill:none;stroke:#000;stroke-width:0.007899999618530273px"/><path d="M23.06,26a0.64,0.64,0,1,1-.64-0.67A0.66,0.66,0,0,1,23.06,26Z" transform="translate(-9.71 -11.02)"/><path d="M11.35,13.67c-0.33,0-.44-0.08-0.44-0.28s0.11-.28.45-0.28h0.7v0.08H11.35c-0.24,0-.36,0-0.36.19s0.11,0.2.36,0.2h0.71v0.08H11.35Z" transform="translate(-9.71 -11.02)"/><path d="M11,14.52h1V14.6H10.93V14.48l1-.36h-1V14h1.14v0.12l-1,.36h0Z" transform="translate(-9.71 -11.02)"/><path d="M10.93,15h1.14v0.08H10.93V15Z" transform="translate(-9.71 -11.02)"/><path d="M11,15.73l0.48,0.1L12.06,16V16l-1.14-.27v-0.1l1.14-.27v0.09l-0.56.13-0.48.1h0Z" transform="translate(-9.71 -11.02)"/><path d="M11.57,16.78H11.48V16.47H11v0.43H10.93V16.38h1.14v0.49H12V16.47H11.57v0.32Z" transform="translate(-9.71 -11.02)"/><path d="M10.93,17.89V17.78l0.46-.25V17.36H10.93V17.27h1.14v0.25a0.33,0.33,0,0,1-.65.1Zm0.56-.34a0.22,0.22,0,0,0,.25.21A0.21,0.21,0,0,0,12,17.5V17.35H11.49v0.19Z" transform="translate(-9.71 -11.02)"/><path d="M11.87,18.62A0.18,0.18,0,0,0,12,18.44a0.19,0.19,0,0,0-.06-0.14,0.17,0.17,0,0,0-.13,0,0.19,0.19,0,0,0-.14.05,0.71,0.71,0,0,0-.11.17,0.58,0.58,0,0,1-.12.18,0.3,0.3,0,0,1-.21.08A0.34,0.34,0,0,1,11,18.66a0.29,0.29,0,0,1,.1-0.51l0,0.08a0.22,0.22,0,0,0-.15.21,0.21,0.21,0,0,0,.08.15,0.25,0.25,0,0,0,.15,0,0.2,0.2,0,0,0,.15-0.06,0.59,0.59,0,0,0,.1-0.17,0.55,0.55,0,0,1,.12-0.18,0.29,0.29,0,0,1,.21-0.07,0.27,0.27,0,0,1,.19.07,0.26,0.26,0,0,1,.09.21,0.25,0.25,0,0,1-.21.25V18.62Z" transform="translate(-9.71 -11.02)"/><path d="M10.93,19.07h1.14v0.08H10.93V19.07Z" transform="translate(-9.71 -11.02)"/><path d="M12,20V19.8H10.93V19.71H12V19.47h0.08V20H12Z" transform="translate(-9.71 -11.02)"/><path d="M11.39,20.64H10.93V20.56h0.46l0.68-.28v0.1l-0.29.1-0.3.12h0l0.3,0.11,0.29,0.11v0.1Z" transform="translate(-9.71 -11.02)"/><path d="M11.5,21.64c0.41,0,.6.16,0.6,0.35s-0.18.35-.6,0.35-0.58-.16-0.58-0.35,0.17-.35.58-0.35h0ZM12,22c0-.13-0.14-0.26-0.51-0.26S11,21.85,11,22s0.15,0.26.5,0.26S12,22.13,12,22h0Z" transform="translate(-9.71 -11.02)"/><path d="M10.93,22.67h1.14v0.46H12V22.75H11.57V23h-0.1v-0.3H10.93V22.67h0Z" transform="translate(-9.71 -11.02)"/><path d="M10.93,24.37V23.92h1.14V24H11v0.37H10.93Z" transform="translate(-9.71 -11.02)"/><path d="M10.93,24.66h1.14v0.09H10.93V24.66Z" transform="translate(-9.71 -11.02)"/><path d="M11.53,25.44a0.25,0.25,0,0,1-.29.21,0.28,0.28,0,0,1-.31-0.32V25.11h1.14v0.2a0.25,0.25,0,0,1-.27.3,0.22,0.22,0,0,1-.26-0.18h0ZM11,25.19v0.13a0.21,0.21,0,0,0,.22.25,0.21,0.21,0,0,0,.24-0.24V25.19H11Zm0.55,0v0.13a0.21,0.21,0,1,0,.41,0V25.19H11.57Z" transform="translate(-9.71 -11.02)"/><path d="M11.57,26.35H11.48V26H11v0.42H10.93V26h1.14v0.49H12V26H11.57v0.31Z" transform="translate(-9.71 -11.02)"/><path d="M10.93,27.44V27.33l0.46-.25V26.9H10.93V26.82h1.14v0.25a0.33,0.33,0,0,1-.65.1Zm0.56-.34a0.22,0.22,0,0,0,.25.21A0.21,0.21,0,0,0,12,27.06V26.9H11.49v0.2Z" transform="translate(-9.71 -11.02)"/><path d="M11.29,27.83l-0.36-.08V27.65l1.14,0.27V28l-1.14.27V28.22l0.36-.08V27.83ZM11.68,28L12,28h0l-0.31-.07-0.3-.06v0.26Z" transform="translate(-9.71 -11.02)"/><path d="M11.07,29.24L11,28.8l1.11-.25,0,0.08-1,.24,0.08,0.36H11.07Z" transform="translate(-9.71 -11.02)"/><path d="M11.7,30.09l-0.36,0,0-.09,1.17-.12,0,0.1-1,.64,0-.08,0.31-.19Zm0.44,0.08L12.4,30h0l-0.31,0-0.31,0,0.09,0.25Z" transform="translate(-9.71 -11.02)"/><path d="M11.91,31.6l0-.11,0.34-.42-0.07-.15-0.43.19,0-.08,1-.46,0.11,0.23a0.35,0.35,0,0,1-.58.36Zm0.38-.54a0.22,0.22,0,0,0,.31.1,0.21,0.21,0,0,0,.12-0.33l-0.06-.15-0.45.2Z" transform="translate(-9.71 -11.02)"/><path d="M13.23,31.86l-0.11-.22-0.94.49,0-.07,0.94-.49L13,31.35l0.09,0,0.26,0.51Z" transform="translate(-9.71 -11.02)"/><path d="M13.48,32.52a0.19,0.19,0,0,0,0-.23,0.2,0.2,0,0,0-.12-0.09,0.17,0.17,0,0,0-.14,0,0.23,0.23,0,0,0-.1.12,1.65,1.65,0,0,0,0,.21,0.64,0.64,0,0,1,0,.21,0.36,0.36,0,0,1-.15.17,0.38,0.38,0,0,1-.23.05,0.3,0.3,0,0,1-.21-0.13,0.27,0.27,0,0,1,0-.36l0.06,0.06a0.22,0.22,0,0,0,0,.26,0.21,0.21,0,0,0,.15.09,0.2,0.2,0,0,0,.15,0A0.22,0.22,0,0,0,13,32.75a0.8,0.8,0,0,0,0-.2,0.59,0.59,0,0,1,0-.21,0.3,0.3,0,0,1,.14-0.17,0.27,0.27,0,0,1,.2,0,0.26,0.26,0,0,1,.18.13,0.25,0.25,0,0,1,0,.33Z" transform="translate(-9.71 -11.02)"/><path d="M13.89,33.68a0.25,0.25,0,0,1-.1.35A0.28,0.28,0,0,1,13.35,34l-0.14-.18,0.91-.7,0.12,0.17a0.25,0.25,0,0,1,0,.4,0.21,0.21,0,0,1-.31,0h0Zm-0.56.12L13.4,33.9a0.23,0.23,0,1,0,.38-0.28l-0.09-.11Zm0.44-.33,0.08,0.1a0.21,0.21,0,1,0,.32-0.26l-0.08-.1Z" transform="translate(-9.71 -11.02)"/><path d="M14.09,34.32l-0.32.18-0.06-.07,1-.56L14.81,34l-0.66,1-0.06-.06,0.21-.29Zm0.44-.09L14.71,34h0l-0.28.16-0.27.15,0.18,0.2Z" transform="translate(-9.71 -11.02)"/><path d="M14.8,35.39l0.7-.74,0.06,0.05-0.79.83-0.08-.08q0.32-.74.44-1h0l-0.7.74-0.06,0,0.79-.83,0.08,0.08c-0.21.49-.36,0.83-0.44,1h0Z" transform="translate(-9.71 -11.02)"/><path d="M15.67,36.13A0.42,0.42,0,0,1,15.34,36c-0.18-.14-0.15-0.4.08-0.7s0.52-.35.66-0.23a0.33,0.33,0,0,1,.08.37l-0.08,0a0.23,0.23,0,0,0,0-.27c-0.1-.08-0.31-0.07-0.54.22s-0.22.47-.09,0.57a0.3,0.3,0,0,0,.22.07l0.19-.24-0.15-.12,0.05-.07,0.22,0.17Z" transform="translate(-9.71 -11.02)"/><path d="M16.27,36.68l-0.38-.25,0.64-.95,0.07,0L16,36.4l0.31,0.2Z" transform="translate(-9.71 -11.02)"/><path d="M16.8,36.59l-0.25.27-0.08,0,0.8-.86L17.37,36,17,37.13l-0.08,0,0.1-.35Zm0.38-.23,0.1-.3h0l-0.2.23-0.21.23,0.23,0.13Z" transform="translate(-9.71 -11.02)"/><path d="M17.33,37.28l0.48-1L18,36.34c0.22,0.11.25,0.33,0.09,0.67s-0.34.48-.57,0.37Zm0.25,0q0.25,0.12.46-.32c0.14-.28.13-0.47,0-0.56l-0.14-.05-0.41.87Z" transform="translate(-9.71 -11.02)"/><path d="M18.81,37.22l0,0.08-0.29-.11-0.16.44,0.4,0.14,0,0.09-0.47-.18,0.4-1.07,0.46,0.18,0,0.08-0.37-.15-0.15.39Z" transform="translate(-9.71 -11.02)"/><path d="M19.7,37.19A0.18,0.18,0,0,0,19.57,37a0.24,0.24,0,0,0-.15,0,0.21,0.21,0,0,0-.08.12,0.14,0.14,0,0,0,0,.15,0.5,0.5,0,0,0,.14.15,0.76,0.76,0,0,1,.14.16,0.33,0.33,0,0,1,0,.22,0.38,0.38,0,0,1-.13.2,0.29,0.29,0,0,1-.25,0A0.28,0.28,0,0,1,19,37.77h0.09a0.22,0.22,0,0,0,.15.21,0.19,0.19,0,0,0,.17,0,0.23,0.23,0,0,0,.09-0.13,0.24,0.24,0,0,0,0-.17,0.72,0.72,0,0,0-.14-0.15,0.67,0.67,0,0,1-.14-0.17,0.33,0.33,0,0,1,0-.22,0.24,0.24,0,0,1,.12-0.16,0.23,0.23,0,0,1,.21,0,0.24,0.24,0,0,1,.19.27H19.7Z" transform="translate(-9.71 -11.02)"/><path d="M20.43,38.33l-0.08,0,0.12-.54-0.39-.08L20,38.23l-0.08,0,0.25-1.12,0.09,0-0.1.49,0.38,0.09,0.11-.49,0.08,0Z" transform="translate(-9.71 -11.02)"/><path d="M24.86,37.51l-0.47.1a0.15,0.15,0,0,0,0,0h0.12a0.24,0.24,0,0,1,.14.06,0.23,0.23,0,0,1,.08.14,0.24,0.24,0,0,1-.13.24l-0.08,0,0.09,0,0.19,0.07L25,38.35l0.06,0.11a1.15,1.15,0,0,0-.36-0.16,1.43,1.43,0,0,0-.41-0.05l-0.15-.18a0.47,0.47,0,0,0,.27,0l0.08,0L24.57,38a0.25,0.25,0,0,0,.07-0.08V37.86a0.12,0.12,0,0,0-.1-0.1H24.45a0.18,0.18,0,0,1,0,.14,0.16,0.16,0,0,1-.09,0H24.23a0.07,0.07,0,0,1,0-.05,0.3,0.3,0,0,1,0-.08l0-.06,0.11-.08a0.09,0.09,0,0,0-.07,0L24,37.7l-0.1-.06,0.59-.13,0.07,0,0,0v0a0.06,0.06,0,0,0-.07,0H24.44l-0.19,0-0.06,0a0.33,0.33,0,0,1-.23,0,0.15,0.15,0,0,1-.08-0.1,0.14,0.14,0,0,1,0-.08l0,0h0a0.08,0.08,0,0,0,0,.08,0.08,0.08,0,0,0,.07.05h0.06l0.1,0,0.13,0h0.23a0.19,0.19,0,0,1,.16.17l0.07,0Z" transform="translate(-9.71 -11.02)"/><path d="M25.89,37.19l-0.49.16,0.07,0.23,0,0a0,0,0,0,0,.06,0,0.17,0.17,0,0,0,.06-0.1,0.23,0.23,0,0,1,.07-0.1,0.16,0.16,0,0,1,.15.06,0.32,0.32,0,0,1,.09.13,0.31,0.31,0,0,1,0,.31,0.38,0.38,0,0,1-.2.11,0.32,0.32,0,0,1-.24,0,0.61,0.61,0,0,1-.15-0.12l-0.09-.1a0.72,0.72,0,0,1-.09-0.16l0-.11H25.1a0.57,0.57,0,0,0,.15.23,0.43,0.43,0,0,0,.11.09l0.09,0a0.26,0.26,0,0,0,.2,0,0.54,0.54,0,0,0,.12-0.06,0.29,0.29,0,0,0,.07-0.1,0.23,0.23,0,0,0,0-.12,0.13,0.13,0,0,0-.07-0.08,0.19,0.19,0,0,1,0,.1,0.25,0.25,0,0,1-.13.12,0.12,0.12,0,0,1-.11,0,0.22,0.22,0,0,1-.08-0.08h0l-0.09-.29-0.37.12-0.11,0,0.69-.23,0,0,0,0s0,0-.06,0H25.44l-0.18.07-0.06,0a0.32,0.32,0,0,1-.19,0,0.14,0.14,0,0,1-.14-0.1,0,0,0,0,1,0-.05s0-.05,0-0.05h0a0.07,0.07,0,0,0,0,.06,0.09,0.09,0,0,0,.08.05h0.08l0.15-.06L25.36,37a0.34,0.34,0,0,1,.21,0,0.19,0.19,0,0,1,.12.14l0.08,0Z" transform="translate(-9.71 -11.02)"/><path d="M26.8,36.62l-0.18,0a0.55,0.55,0,0,0-.34,0,0.35,0.35,0,0,0-.15.11l0,0,0,0.06a0.19,0.19,0,0,0,0,.12l0.06,0,0.09,0,0.12,0-0.16.06,0.32,0.78-0.12,0-0.28-.71L26,37.14l-0.11,0L26.07,37,26,37a0.06,0.06,0,0,1,0,0,0.18,0.18,0,0,1,0-.07,0.64,0.64,0,0,1,0-.1,0.43,0.43,0,0,1,.1-0.14,0.23,0.23,0,0,1,.11-0.07,0.79,0.79,0,0,1,.4,0l0.2,0.05Z" transform="translate(-9.71 -11.02)"/><path d="M27.18,36.59L27,36.67l0.38,0.78-0.05,0a0.5,0.5,0,0,0-.11-0.16,0.8,0.8,0,0,0-.15-0.13A0.32,0.32,0,0,0,27,37.08a0.27,0.27,0,0,0-.15,0h0l0,0a0.08,0.08,0,0,1,.06.06,0.1,0.1,0,0,1,0,.06,0.12,0.12,0,0,1-.07.09c-0.11,0-.19,0-0.22-0.06a0.13,0.13,0,0,1,0-.15A0.21,0.21,0,0,1,26.73,37a0.37,0.37,0,0,1,.35,0l0.08,0L27,36.7,26.39,37l-0.12,0,0.79-.38Z" transform="translate(-9.71 -11.02)"/><path d="M28.09,36l-0.84.52-0.12,0L28,36Zm0.15,0.34a0.32,0.32,0,0,1,0,.3s0,0,0,.06l0,0.06-0.09.08a0.42,0.42,0,0,1-.22.06l-0.12,0a1,1,0,0,1-.25-0.13l-0.22-.17h0.06a0.8,0.8,0,0,0,.41.2,0.4,0.4,0,0,0,.28-0.06,0.27,0.27,0,0,0,.12-0.26,0.1,0.1,0,0,0,0-.06l0,0a0.07,0.07,0,0,0-.06,0h0l0,0.1a0.25,0.25,0,0,1-.07.09l-0.07.06a0.27,0.27,0,0,1-.19,0,0.15,0.15,0,0,1-.08-0.07,0.12,0.12,0,0,1,0-.11,0.2,0.2,0,0,1,.08-0.08h0.08l0.06,0a0.22,0.22,0,0,1,0,.1h0a0.22,0.22,0,0,0,.07-0.13,0.28,0.28,0,0,0,0-.12h0a0.19,0.19,0,0,1,.17,0A0.3,0.3,0,0,1,28.24,36.37Z" transform="translate(-9.71 -11.02)"/><path d="M28.48,35.74l-0.12.1,0.51,0.7H28.75L28.38,36l0,0,0,0a0.18,0.18,0,0,0-.17,0H28a0.44,0.44,0,0,1,.11-0.09,0.19,0.19,0,0,1,.18,0L28.4,36l-0.13-.14-0.11-.14h0l0,0,0,0h0l0.06,0h0.12Z" transform="translate(-9.71 -11.02)"/><path d="M29.19,35H29a0.55,0.55,0,0,0-.31.13,0.31,0.31,0,0,0-.11.15l0,0a0.27,0.27,0,0,0,0,.06,0.15,0.15,0,0,0,0,.12l0.06,0,0.08-.06h0.13l-0.13.1,0.53,0.66H29.1l-0.47-.6-0.11.09H28.41l0.18-.14H28.48a0,0,0,0,1,0,0,0.09,0.09,0,0,1,0-.06c0-.06,0-0.1,0-0.11a0.48,0.48,0,0,1,.06-0.16,0.4,0.4,0,0,1,.08-0.09,0.74,0.74,0,0,1,.37-0.15h0.21Z" transform="translate(-9.71 -11.02)"/><path d="M29.62,34.76l-0.12.11,0.57,0.63H29.94l-0.26-.28H29.6a0.11,0.11,0,0,0-.08,0,0.11,0.11,0,0,0,0,.11,0.7,0.7,0,0,1,0,.29l0,0a0.09,0.09,0,0,1-.06,0,0.35,0.35,0,0,1-.15,0l-0.06,0V35.57l0,0h0.09a0.15,0.15,0,0,0,0-.11V35.36l-0.07,0a0.14,0.14,0,0,0-.17,0L29,35.4a0.16,0.16,0,0,1-.1,0H28.78l0.72-.66h0.12Zm0,0.39-0.2-.22-0.3.29h0.06a0.18,0.18,0,0,1,.14.06v0a0.1,0.1,0,0,0,0-.06,0.15,0.15,0,0,1,0-.07l0.08,0h0.15Z" transform="translate(-9.71 -11.02)"/><path d="M29.38,34.28l0,0.53L29.19,35l0.12-.63Z" transform="translate(-9.71 -11.02)"/><path d="M30.24,33.84l-0.18,0a0.64,0.64,0,0,0-.29.17,0.44,0.44,0,0,0-.09.16v0.11a0.2,0.2,0,0,0,0,.12l0.08,0,0.07-.07H30l-0.1.12,0.61,0.58H30.35l-0.56-.52-0.1.1-0.12,0,0.17-.18H29.63l0,0a0.12,0.12,0,0,1,0-.06c0-.06,0-0.09,0-0.11a0.54,0.54,0,0,1,0-.17,0.51,0.51,0,0,1,.06-0.1,0.84,0.84,0,0,1,.35-0.2l0.2,0Z" transform="translate(-9.71 -11.02)"/><path d="M30.55,33.7l-0.39.48,0.42,0.35s0.05,0,.09,0a0.35,0.35,0,0,0,0-.26,0.2,0.2,0,0,0,0-.1l0,0a0.11,0.11,0,0,1-.07,0,0.07,0.07,0,0,1-.07,0h0a0.12,0.12,0,0,1,0-.15,0.14,0.14,0,0,1,.14,0,0.16,0.16,0,0,1,.09,0,0.37,0.37,0,0,1,.11.22,0.5,0.5,0,0,1-.05.31l-0.08.06a0.23,0.23,0,0,1-.16,0l-0.09-.07-0.35-.29L30,34.35H29.89l0.44-.53,0,0H30.23a0.16,0.16,0,0,0-.07.06L30,34,30,34a0.38,0.38,0,0,1-.2.13,0.14,0.14,0,0,1-.13,0,0.1,0.1,0,0,1,0-.07v0h0a0.06,0.06,0,0,0,0,0s0.07,0,.12,0l0.06,0L29.93,34l0-.07L30,33.8a0.34,0.34,0,0,1,.12-0.09,0.18,0.18,0,0,1,.22,0l0,0Z" transform="translate(-9.71 -11.02)"/><path d="M31.57,32.18l-0.09.13,0.72,0.45H32.14l-0.11,0H31.91l-0.14,0a0.32,0.32,0,0,1,0,.26l-0.06.06a0.37,0.37,0,0,1-.16.09l-0.15,0-0.21,0-0.17,0,0,0,0.17,0h0.15l0.14-.05A0.38,0.38,0,0,0,31.64,33a0.14,0.14,0,0,0,0-.21l-0.09,0a0.09,0.09,0,0,0-.09,0s0,0,0,.06a0.1,0.1,0,0,1,0,.09,0.2,0.2,0,0,1-.08.08,0.09,0.09,0,0,1-.1,0,0.1,0.1,0,0,1,0-.12,0.15,0.15,0,0,0,0-.06,0.48,0.48,0,0,1,.22-0.15,0.26,0.26,0,0,1,.24,0h0.19l-0.46-.29L31,33.15l-0.12,0,0.6-1Z" transform="translate(-9.71 -11.02)"/><path d="M32,31.35l-0.08.15,0.76,0.4H32.6a0.53,0.53,0,0,0-.35.09,0.62,0.62,0,0,0-.17.17l-0.19,0a2.23,2.23,0,0,1,0-.26c0-.13,0-0.25,0-0.35l0,0-0.28.53-0.12,0,0.4-.77Zm0.43,0.52L32,31.67a1.56,1.56,0,0,0,0,.39A0.74,0.74,0,0,1,32.42,31.87Z" transform="translate(-9.71 -11.02)"/><path d="M32.49,29.76l-0.16.11a0.52,0.52,0,0,0-.21.27,0.3,0.3,0,0,0,0,.18l0,0.06a0.08,0.08,0,0,0,0,0,0.21,0.21,0,0,0,.06.1h0.08l0-.09,0.11,0-0.06.15,0.78,0.32L33,30.89l-0.7-.29-0.05.13-0.11.06,0.09-.23-0.1.05h0a0.09,0.09,0,0,1,0,0A0.36,0.36,0,0,1,32,30.47a0.9,0.9,0,0,1,0-.17,0.31,0.31,0,0,1,0-.12,0.78,0.78,0,0,1,.25-0.32l0.17-.1h0.07Z" transform="translate(-9.71 -11.02)"/><path d="M32.76,29.38l-0.05.15,0.81,0.27-0.1.06L33,29.72a0.13,0.13,0,0,0-.09,0,0.12,0.12,0,0,0-.06.07,0.07,0.07,0,0,0,0,.06l0.05,0h0v0h0l-0.08,0a0.18,0.18,0,0,0-.08.11,0.27,0.27,0,0,0,0,.11,0.16,0.16,0,0,0,.06.08l0,0A0.12,0.12,0,0,0,33,30.22a0.09,0.09,0,0,1-.07,0,0.06,0.06,0,0,1,0,0,0.08,0.08,0,0,1,0-.08,0.11,0.11,0,0,1,.1-0.07H33a0.14,0.14,0,0,1,0,.16,0.43,0.43,0,0,1-.07.12,0.21,0.21,0,0,1-.23.05,0.28,0.28,0,0,1-.13-0.1,0.17,0.17,0,0,1,0-.16A0.23,0.23,0,0,1,32.71,30l0,0a0.08,0.08,0,0,1,0-.06,0.11,0.11,0,0,1,0-.08,0.14,0.14,0,0,1,.06-0.07h0a0.17,0.17,0,0,1,.09,0l-0.22-.07-0.23.69-0.11.06,0.31-.92Z" transform="translate(-9.71 -11.02)"/><path d="M32.75,28.42V28.6h0.85l-0.06,0a0.59,0.59,0,0,0-.26.24,0.64,0.64,0,0,0-.07.24l-0.15.12A1.34,1.34,0,0,1,32.93,29a1.85,1.85,0,0,1-.13-0.33H32.75v0.6l-0.08.09V28.51Zm0.62,0.27H32.94a1.54,1.54,0,0,0,.17.36A0.71,0.71,0,0,1,33.38,28.68Z" transform="translate(-9.71 -11.02)"/><path d="M32.75,27.94V28.1h0.87l-0.09.09H32.87l0,0a0.18,0.18,0,0,0-.07.15v0l-0.08.09a0.46,0.46,0,0,1,0-.15,0.16,0.16,0,0,1,.11-0.14l0.1,0-0.19,0H32.52l0,0h0l0,0,0,0V28Z" transform="translate(-9.71 -11.02)"/><path d="M32.75,27.28a0.6,0.6,0,0,0,.1.21,0.36,0.36,0,0,0,.17.14l0.11,0h0.13a0.28,0.28,0,0,0,.25-0.15s0,0,0,0a0,0,0,0,0,0,0l0,0a0.09,0.09,0,0,1-.06,0s-0.07,0-.09-0.07a0.05,0.05,0,0,1,0,0,0.09,0.09,0,0,1,0-.05,0.1,0.1,0,0,1,.09-0.06,0.13,0.13,0,0,1,.1,0,0.21,0.21,0,0,1,0,.12,0.26,0.26,0,0,1,0,.14,0.44,0.44,0,0,1-.36.17H33.09a0.59,0.59,0,0,1-.33-0.18v0.28l-0.08.09V27.37Z" transform="translate(-9.71 -11.02)"/><path d="M32.75,26.37v0.15h0.84l0,0-0.14.08a0.48,0.48,0,0,0-.15.18,0.59,0.59,0,0,0-.06.24l-0.15.12a2,2,0,0,1-.2-0.39l-0.06-.16H32.75v0.57l-0.08.1V26.46Zm0.64,0.24H32.93a1,1,0,0,0,.08.21L33.1,27A0.65,0.65,0,0,1,33.39,26.61Zm0.14,0.26a0.11,0.11,0,0,1,0,.07,0.06,0.06,0,0,1-.05,0,0.09,0.09,0,0,1-.07,0,0.09,0.09,0,0,1,0-.06,0.13,0.13,0,0,1,0-.07,0.09,0.09,0,0,1,.07,0,0.06,0.06,0,0,1,.05,0A0.09,0.09,0,0,1,33.53,26.87Z" transform="translate(-9.71 -11.02)"/><path d="M32.75,25.29v0.15H33.6l-0.08.1H33.06a0.08,0.08,0,0,0-.07,0,0.1,0.1,0,0,0,0,.09,0.07,0.07,0,0,0,0,0,0.07,0.07,0,0,0,.06,0h0l0,0,0,0L33,25.84A0.19,0.19,0,0,0,33,26a0.17,0.17,0,0,0,0,.1,0.16,0.16,0,0,0,.08.07h0a0.1,0.1,0,0,0,.1-0.12,0.08,0.08,0,0,1-.06,0l-0.06,0a0.13,0.13,0,0,1,0-.08,0.09,0.09,0,0,1,.07-0.1,0.1,0.1,0,0,1,.08,0,0.14,0.14,0,0,1,.09.14,0.4,0.4,0,0,1,0,.15,0.21,0.21,0,0,1-.2.12,0.26,0.26,0,0,1-.16-0.05A0.18,0.18,0,0,1,32.83,26a0.26,0.26,0,0,1,.06-0.17l0,0a0.08,0.08,0,0,1-.06,0,0.11,0.11,0,0,1,0-.07,0.14,0.14,0,0,1,0-.09l0,0,0.07,0H32.75v0.72l-0.09.1v-1Z" transform="translate(-9.71 -11.02)"/><path d="M32.75,22.76v0.16H33.6l0,0-0.1,0a0.28,0.28,0,0,0-.11.06l-0.11.08a0.27,0.27,0,0,1,.13.23,0.44,0.44,0,0,1,0,.08,0.65,0.65,0,0,1-.08.16l-0.12.1-0.2.09-0.17.06,0-.05L33,23.76a0.43,0.43,0,0,0,.13-0.08,0.44,0.44,0,0,0,.09-0.12,0.33,0.33,0,0,0,0-.18,0.14,0.14,0,0,0-.15-0.16,0.19,0.19,0,0,0-.09,0,0.06,0.06,0,0,0-.05.07l0,0a0.11,0.11,0,0,1,0,.07,0.2,0.2,0,0,1,0,.11,0.09,0.09,0,0,1-.08,0,0.09,0.09,0,0,1-.1-0.08,0.09,0.09,0,0,1,0-.06,0.39,0.39,0,0,1,.1-0.25,0.29,0.29,0,0,1,.23-0.09L33.3,23H32.75v0.88l-0.08.1V22.86Z" transform="translate(-9.71 -11.02)"/><path d="M32.75,22.27v0.16h0.87l-0.09.09H32.87l0,0a0.17,0.17,0,0,0-.07.15v0l-0.08.1a0.46,0.46,0,0,1,0-.15,0.17,0.17,0,0,1,.11-0.14l0.1,0-0.19,0H32.52l0,0h0.09l0,0V22.36Z" transform="translate(-9.71 -11.02)"/><path d="M32.75,21.35V22h0.56s0.06,0,.06-0.07a0.32,0.32,0,0,0-.14-0.22,0.16,0.16,0,0,0-.11-0.05v0a0.12,0.12,0,0,1,0,.08,0.07,0.07,0,0,1-.07,0h0a0.11,0.11,0,0,1-.08-0.12A0.15,0.15,0,0,1,33,21.52a0.14,0.14,0,0,1,.1,0,0.31,0.31,0,0,1,.22.1,0.52,0.52,0,0,1,.16.26,0.25,0.25,0,0,1,0,.1,0.27,0.27,0,0,1-.13.09,0.25,0.25,0,0,1-.11,0H32.75v0.15l-0.08.08v-0.7h0a0.07,0.07,0,0,0-.06,0,0.23,0.23,0,0,0,0,.09s0,0.11,0,.18,0,0.05,0,.07a0.32,0.32,0,0,1-.07.21,0.16,0.16,0,0,1-.11.07l-0.08,0v0a0,0,0,0,1,0,0h0a0,0,0,0,0,0,0,0.09,0.09,0,0,0,.09-0.08,0.2,0.2,0,0,0,0-.07c0-.06,0-0.09,0-0.1a0.54,0.54,0,0,1,0-.09,1,1,0,0,1,0-.11,0.42,0.42,0,0,1,0-.15,0.2,0.2,0,0,1,.19-0.12v0Z" transform="translate(-9.71 -11.02)"/><path d="M32.26,21.13l0.34,0.4v0.22l-0.35-.53V21.13Z" transform="translate(-9.71 -11.02)"/><path d="M32.75,20.16v0.17H33.6l-0.1.09H33.13a0.12,0.12,0,0,0-.07,0,0.17,0.17,0,0,0,0,.08,0.12,0.12,0,0,0,.06.09,0.7,0.7,0,0,1,.21.2v0a0.09,0.09,0,0,1,0,.07,0.19,0.19,0,0,1-.1.1l-0.06,0L33.07,21h0l0.05,0a0.11,0.11,0,0,0,0,0,0.16,0.16,0,0,0-.07-0.09L33,20.77H32.93a0.16,0.16,0,0,0-.1.16c0,0.06,0,.09,0,0.1a0.18,0.18,0,0,1-.07.08l0,0-0.07.08v-1ZM33,20.43H32.75v0.42l0-.06a0.17,0.17,0,0,1,.14-0.07h0l0-.06a0.14,0.14,0,0,1,0-.07,0.15,0.15,0,0,1,0-.08A0.46,0.46,0,0,1,33,20.43Z" transform="translate(-9.71 -11.02)"/><path d="M32.75,18.61v0.17h0.85l-0.06,0a0.54,0.54,0,0,0-.26.25,0.6,0.6,0,0,0-.07.23l-0.15.12a1.29,1.29,0,0,1-.13-0.23,2.47,2.47,0,0,1-.13-0.33H32.75v0.6l-0.08.09V18.7Zm0.62,0.26H32.94a1.69,1.69,0,0,0,.17.36A0.67,0.67,0,0,1,33.38,18.87Z" transform="translate(-9.71 -11.02)"/><path d="M32.75,18.14v0.16h0.87l-0.09.09H32.87l0,0a0.17,0.17,0,0,0-.07.15v0l-0.08.1a0.44,0.44,0,0,1,0-.15,0.19,0.19,0,0,1,.11-0.15l0.1,0-0.19,0H32.52l0,0h0l0,0,0,0V18.23Z" transform="translate(-9.71 -11.02)"/><path d="M33,17.63a0.12,0.12,0,0,1,0,.08,0.14,0.14,0,0,1,0,.07,0.21,0.21,0,0,1-.06.15,0.17,0.17,0,0,1-.14.06,0.18,0.18,0,0,1-.14-0.08,0.2,0.2,0,0,1,0-.13,0.19,0.19,0,0,1,.06-0.14,0.18,0.18,0,0,1,.14-0.06A0.19,0.19,0,0,1,33,17.63Zm-0.07.1a0.13,0.13,0,0,0-.05-0.06H32.87a0.06,0.06,0,0,0-.07.06,0.2,0.2,0,0,0,.06.11,0.12,0.12,0,0,0,.1,0,0.05,0.05,0,0,0,.06,0A0.19,0.19,0,0,0,33,17.72Zm0.72-.31-0.1.1a3.7,3.7,0,0,0-.27.41H33.14l0.17-.21a4.06,4.06,0,0,1,.32-0.3h0.07Z" transform="translate(-9.71 -11.02)"/><path d="M32.75,16.41v0.16H33.6l-0.08.09H33.06a0.1,0.1,0,0,0-.07,0,0.11,0.11,0,0,0,0,.09,0.09,0.09,0,0,0,0,.05h0.1l0,0,0,0L33,17a0.2,0.2,0,0,0,0,.13,0.22,0.22,0,0,0,0,.11,0.16,0.16,0,0,0,.08.06h0a0.1,0.1,0,0,0,.1-0.12,0.08,0.08,0,0,1-.06,0,0.09,0.09,0,0,1-.06,0,0.11,0.11,0,0,1,0-.07,0.1,0.1,0,0,1,.07-0.1h0.08a0.14,0.14,0,0,1,.09.14,0.4,0.4,0,0,1,0,.15,0.2,0.2,0,0,1-.2.12,0.24,0.24,0,0,1-.16-0.05,0.17,0.17,0,0,1-.08-0.15A0.27,0.27,0,0,1,32.9,17l0,0a0.1,0.1,0,0,1-.06,0,0.13,0.13,0,0,1,0-.07,0.11,0.11,0,0,1,0-.08l0,0,0.07,0H32.75v0.72l-0.09.1v-1Z" transform="translate(-9.71 -11.02)"/><path d="M32.75,15.93v0.16h0.87l-0.09.09H32.87l0,0a0.19,0.19,0,0,0-.07.16v0l-0.08.09a0.43,0.43,0,0,1,0-.14,0.17,0.17,0,0,1,.11-0.14l0.1,0-0.19,0H32.52l0,0h0l0,0,0,0V16Z" transform="translate(-9.71 -11.02)"/><path d="M32.75,15.27a0.61,0.61,0,0,0,.1.22,0.37,0.37,0,0,0,.17.14l0.11,0,0.13,0a0.29,0.29,0,0,0,.25-0.15,0.34,0.34,0,0,0,0,0,0,0,0,0,0,0,0l0,0a0.1,0.1,0,0,1-.06,0,0.08,0.08,0,0,1-.09-0.07,0.06,0.06,0,0,1,0,0,0.1,0.1,0,0,1,0-.05,0.09,0.09,0,0,1,.09-0.06,0.13,0.13,0,0,1,.1,0,0.22,0.22,0,0,1,0,.12,0.27,0.27,0,0,1,0,.14,0.43,0.43,0,0,1-.36.17H33.09a0.63,0.63,0,0,1-.33-0.19v0.28l-0.08.09V15.36Z" transform="translate(-9.71 -11.02)"/><path d="M32.75,14.3V15h0.35l-0.06-.06L33,14.84a1.09,1.09,0,0,1-.12-0.25L33,14.42a0.7,0.7,0,0,0,.46.12l0.18,0,0,0.07-0.1,0a0.76,0.76,0,0,1-.22,0,0.81,0.81,0,0,1-.24,0,1.13,1.13,0,0,0,.1.19,0.59,0.59,0,0,0,.23.19l-0.11.13H32.75v0.1l-0.08.1V14.4Z" transform="translate(-9.71 -11.02)"/><path d="M32.75,13.21v0.15H33.6l-0.09.1H33a0.24,0.24,0,0,0-.11.06,0.12,0.12,0,0,0-.06.18,0.05,0.05,0,0,0,0,0l0.05-.07A0.15,0.15,0,0,1,33,13.59h0.06a0.1,0.1,0,0,1,.06.1,0.16,0.16,0,0,1-.09.14,0.16,0.16,0,0,1,.07.06,0.13,0.13,0,0,1,0,.09,0.12,0.12,0,0,1-.08.11h0A0.17,0.17,0,0,1,32.9,14l0,0a0.05,0.05,0,0,1,0,0L32.78,14a0.16,0.16,0,0,0,0,.08v0.11l-0.08.09V14.09a0.2,0.2,0,0,1,0-.11l0,0a0.17,0.17,0,0,1,.09-0.05l-0.07-.06a0.2,0.2,0,0,1-.07-0.13,0.16,0.16,0,0,1,0,0,0.18,0.18,0,0,1,.08-0.11l0.1-.07a0.21,0.21,0,0,1,.09-0.06l-0.27,0H32.52l0-.06h0.07a0.13,0.13,0,0,0,0-.08Z" transform="translate(-9.71 -11.02)"/><polygon points="13.31 27.65 12.73 27.34 12.14 27.65 12.26 26.99 11.79 26.53 12.44 26.44 12.73 25.84 13.02 26.44 13.68 26.53 13.2 26.99 13.31 27.65" style="fill:#33a3dc"/><path d="M43,30.2C48.17,30,53.33,30,53.33,30l10.33,0L74,30s5.16,0,10.33.17" transform="translate(-9.71 -11.02)" style="fill:#f2c118;stroke:#f2c118;stroke-width:0.4925000071525574px"/><path d="M43.11,30.19c5.06,0.14,10.22.16,10.22,0.16H74s5.16,0,10.22-.16" transform="translate(-9.71 -11.02)" style="fill:#f2c118;stroke:#f2c118;stroke-width:0.4925000071525574px"/><polygon points="27.29 19.16 33.36 19.05 53.98 19.05 74.47 19.05 80.92 19.16 74.47 19.26 53.98 19.26 33.36 19.26 27.29 19.16" style="fill:#f2c118;stroke:#f2c118;stroke-width:0.24619999527931213px"/></svg>
